<?xml version="1.0" standalone="no"?>
<!DOCTYPE svg PUBLIC "-//W3C//DTD SVG 20010904//EN"
 "http://www.w3.org/TR/2001/REC-SVG-20010904/DTD/svg10.dtd">
<svg version="1.0" xmlns="http://www.w3.org/2000/svg"
 width="174.000000pt" height="174.000000pt" viewBox="0 0 174.000000 174.000000"
 preserveAspectRatio="xMidYMid meet">
<metadata>
Created by potrace 1.14, written by Peter Selinger 2001-2017
</metadata>
<g transform="translate(0.000000,174.000000) scale(0.100000,-0.100000)"
fill="#000000" stroke="none">
<path d="M577 1393 c-4 -3 -7 -240 -7 -525 l0 -518 203 0 c111 0 219 3 240 6
61 11 138 63 172 118 28 46 30 56 30 145 0 79 -4 103 -22 136 -28 53 -68 89
-123 114 -25 11 -38 20 -29 20 33 2 97 71 119 129 31 81 25 190 -14 256 -33
56 -97 100 -167 115 -54 12 -391 15 -402 4z m424 -44 c96 -33 144 -105 143
-219 0 -63 -4 -83 -27 -125 -15 -27 -44 -61 -64 -75 -36 -24 -42 -25 -240 -28
l-203 -3 0 230 0 231 179 0 c106 0 192 -5 212 -11z m75 -524 c30 -19 60 -49
79 -79 26 -44 30 -58 30 -125 0 -91 -27 -149 -90 -193 -55 -38 -119 -48 -316
-48 l-169 0 0 241 0 240 208 -3 209 -3 49 -30z"/>
</g>
</svg>
